HIERARCHY
ROOT Hips
{
	OFFSET 0.000001 107.585541 -0.292875
	CHANNELS 6 Xposition Yposition Zposition Xrotation Yrotation Zrotation
	JOINT Spine
	{
		OFFSET -0.023067 13.156998 0.957426
		CHANNELS 6 Xposition Yposition Zposition Xrotation Yrotation Zrotation
		JOINT Spine1
		{
			OFFSET 0.000000 9.894669 0.072741
			CHANNELS 3 Xrotation Yrotation Zrotation
			JOINT Spine2
			{
				OFFSET 0.000000 10.499985 -0.058234
				CHANNELS 3 Xrotation Yrotation Zrotation
				JOINT Neck
				{
					OFFSET -0.000000 26.776306 -4.691216
					CHANNELS 6 Xposition Yposition Zposition Xrotation Yrotation Zrotation
					JOINT Head
					{
						OFFSET 0.000000 14.063217 3.449322
						CHANNELS 6 Xposition Yposition Zposition Xrotation Yrotation Zrotation
						JOINT HeadTop_End
						{
							OFFSET 0.000000 19.645248 2.611582
							CHANNELS 6 Xposition Yposition Zposition Xrotation Yrotation Zrotation
							End Site
							{
								OFFSET 0.000000 14.113129 0.000000
							}
						}
						JOINT L_Eye
						{
							OFFSET 3.570282 7.264572 7.838836
							CHANNELS 6 Xposition Yposition Zposition Xrotation Yrotation Zrotation
							End Site
							{
								OFFSET 0.000000 14.113129 0.000000
							}
						}
						JOINT R_Eye
						{
							OFFSET -3.524154 7.264282 7.838838
							CHANNELS 6 Xposition Yposition Zposition Xrotation Yrotation Zrotation
							End Site
							{
								OFFSET 0.000000 14.113129 0.000000
							}
						}
					}
				}
				JOINT L_Shoulder
				{
					OFFSET 7.980431 21.886398 -6.266449
					CHANNELS 6 Xposition Yposition Zposition Xrotation Yrotation Zrotation
					JOINT L_Arm
					{
						OFFSET 10.677479 -5.478394 -0.078065
						CHANNELS 3 Xrotation Yrotation Zrotation
						JOINT L_ForeArm
						{
							OFFSET 27.567778 0.000015 0.000000
							CHANNELS 3 Xrotation Yrotation Zrotation
							JOINT L_Hand
							{
								OFFSET 27.500092 -0.000015 0.480016
								CHANNELS 3 Xrotation Yrotation Zrotation
								JOINT L_HandThumb1
								{
									OFFSET 5.751503 -2.607742 4.214736
									CHANNELS 6 Xposition Yposition Zposition Xrotation Yrotation Zrotation
									JOINT L_HandThumb2
									{
										OFFSET 2.728218 -1.585464 1.645159
										CHANNELS 6 Xposition Yposition Zposition Xrotation Yrotation Zrotation
										JOINT L_HandThumb3
										{
											OFFSET 2.690651 -1.563644 1.622507
											CHANNELS 6 Xposition Yposition Zposition Xrotation Yrotation Zrotation
											JOINT L_HandThumb4
											{
												OFFSET 2.811111 -1.633636 1.695147
												CHANNELS 6 Xposition Yposition Zposition Xrotation Yrotation Zrotation
												End Site
												{
													OFFSET 2.811104 -1.633652 1.695142
												}
											}
										}
									}
								}
								JOINT L_HandIndex1
								{
									OFFSET 13.704086 -1.118973 2.963548
									CHANNELS 6 Xposition Yposition Zposition Xrotation Yrotation Zrotation
									JOINT L_HandIndex2
									{
										OFFSET 2.538002 -0.000046 0.044317
										CHANNELS 3 Xrotation Yrotation Zrotation
										JOINT L_HandIndex3
										{
											OFFSET 3.551018 0.000015 0.062044
											CHANNELS 3 Xrotation Yrotation Zrotation
											JOINT L_HandIndex4
											{
												OFFSET 3.082214 0.000031 0.053894
												CHANNELS 3 Xrotation Yrotation Zrotation
												End Site
												{
													OFFSET 3.082214 0.000046 0.053895
												}
											}
										}
									}
								}
								JOINT L_HandMiddle1
								{
									OFFSET 13.314011 -0.054794 0.195248
									CHANNELS 6 Xposition Yposition Zposition Xrotation Yrotation Zrotation
									JOINT L_HandMiddle2
									{
										OFFSET 4.054405 -0.000015 0.070800
										CHANNELS 3 Xrotation Yrotation Zrotation
										JOINT L_HandMiddle3
										{
											OFFSET 2.984230 -0.000031 0.052059
											CHANNELS 3 Xrotation Yrotation Zrotation
											JOINT L_HandMiddle4
											{
												OFFSET 3.040154 -0.000031 0.053016
												CHANNELS 3 Xrotation Yrotation Zrotation
												End Site
												{
													OFFSET 3.040154 0.000000 0.053016
												}
											}
										}
									}
								}
								JOINT L_HandRing1
								{
									OFFSET 12.889366 0.014862 -3.304775
									CHANNELS 6 Xposition Yposition Zposition Xrotation Yrotation Zrotation
									JOINT L_HandRing2
									{
										OFFSET 4.066383 0.000000 0.071006
										CHANNELS 3 Xrotation Yrotation Zrotation
										JOINT L_HandRing3
										{
											OFFSET 2.688652 0.000061 0.047021
											CHANNELS 3 Xrotation Yrotation Zrotation
											JOINT L_HandRing4
											{
												OFFSET 2.892899 0.000000 0.050566
												CHANNELS 3 Xrotation Yrotation Zrotation
												End Site
												{
													OFFSET 2.892906 0.000015 0.050566
												}
											}
										}
									}
								}
								JOINT L_HandPinky1
								{
									OFFSET 12.770164 -1.052109 -6.055603
									CHANNELS 6 Xposition Yposition Zposition Xrotation Yrotation Zrotation
									JOINT L_HandPinky2
									{
										OFFSET 3.092682 -0.000046 0.054011
										CHANNELS 3 Xrotation Yrotation Zrotation
										JOINT L_HandPinky3
										{
											OFFSET 2.176254 0.000031 0.038088
											CHANNELS 3 Xrotation Yrotation Zrotation
											JOINT L_HandPinky4
											{
												OFFSET 2.208496 -0.000031 0.038607
												CHANNELS 3 Xrotation Yrotation Zrotation
												End Site
												{
													OFFSET 2.208504 -0.000031 0.038607
												}
											}
										}
									}
								}
							}
						}
					}
				}
				JOINT R_Shoulder
				{
					OFFSET -7.980434 21.886810 -6.266449
					CHANNELS 6 Xposition Yposition Zposition Xrotation Yrotation Zrotation
					JOINT R_Arm
					{
						OFFSET -10.677509 -5.479004 -0.078070
						CHANNELS 3 Xrotation Yrotation Zrotation
						JOINT R_ForeArm
						{
							OFFSET -27.567785 0.000000 -0.000000
							CHANNELS 3 Xrotation Yrotation Zrotation
							JOINT R_Hand
							{
								OFFSET -27.500015 0.000000 0.480015
								CHANNELS 3 Xrotation Yrotation Zrotation
								JOINT R_HandThumb1
								{
									OFFSET -5.971848 -2.424500 3.942988
									CHANNELS 6 Xposition Yposition Zposition Xrotation Yrotation Zrotation
									JOINT R_HandThumb2
									{
										OFFSET -2.728195 -1.584976 1.645155
										CHANNELS 6 Xposition Yposition Zposition Xrotation Yrotation Zrotation
										JOINT R_HandThumb3
										{
											OFFSET -2.690704 -1.563995 1.622524
											CHANNELS 6 Xposition Yposition Zposition Xrotation Yrotation Zrotation
											JOINT R_HandThumb4
											{
												OFFSET -2.811142 -1.633011 1.695130
												CHANNELS 6 Xposition Yposition Zposition Xrotation Yrotation Zrotation
												End Site
												{
													OFFSET -2.811142 -1.632996 1.695138
												}
											}
										}
									}
								}
								JOINT R_HandIndex1
								{
									OFFSET -13.521736 -0.054581 0.198885
									CHANNELS 6 Xposition Yposition Zposition Xrotation Yrotation Zrotation
									JOINT R_HandIndex2
									{
										OFFSET -4.381210 0.000015 0.076519
										CHANNELS 3 Xrotation Yrotation Zrotation
										JOINT R_HandIndex3
										{
											OFFSET -3.478577 0.000031 0.060751
											CHANNELS 3 Xrotation Yrotation Zrotation
											JOINT R_HandIndex4
											{
												OFFSET -6.319054 -0.000015 0.110473
												CHANNELS 3 Xrotation Yrotation Zrotation
												End Site
												{
													OFFSET -6.319061 0.000015 0.110474
												}
											}
										}
									}
								}
								JOINT R_HandRing1
								{
									OFFSET -12.702789 0.785950 -3.722343
									CHANNELS 6 Xposition Yposition Zposition Xrotation Yrotation Zrotation
									JOINT R_HandRing2
									{
										OFFSET -4.066383 0.000000 0.070999
										CHANNELS 3 Xrotation Yrotation Zrotation
										JOINT R_HandRing3
										{
											OFFSET -2.688583 0.000015 0.047006
											CHANNELS 3 Xrotation Yrotation Zrotation
											JOINT R_HandRing4
											{
												OFFSET -2.892967 -0.000015 0.050556
												CHANNELS 3 Xrotation Yrotation Zrotation
												End Site
												{
													OFFSET -2.892960 0.000015 0.050555
												}
											}
										}
									}
								}
								JOINT R_HandPinky1
								{
									OFFSET -12.544357 -0.205673 -6.499258
									CHANNELS 6 Xposition Yposition Zposition Xrotation Yrotation Zrotation
									JOINT R_HandPinky2
									{
										OFFSET -3.092621 0.000000 0.053982
										CHANNELS 3 Xrotation Yrotation Zrotation
										JOINT R_HandPinky3
										{
											OFFSET -2.176262 0.000000 0.037988
											CHANNELS 3 Xrotation Yrotation Zrotation
											JOINT R_HandPinky4
											{
												OFFSET -2.208572 0.000000 0.038550
												CHANNELS 3 Xrotation Yrotation Zrotation
												End Site
												{
													OFFSET -2.208565 0.000000 0.038550
												}
											}
										}
									}
								}
							}
						}
					}
				}
			}
		}
	}
	JOINT L_UpLeg
	{
		OFFSET 10.121319 -5.316734 0.163048
		CHANNELS 6 Xposition Yposition Zposition Xrotation Yrotation Zrotation
		JOINT L_Leg
		{
			OFFSET -0.000002 -40.854481 0.206897
			CHANNELS 3 Xrotation Yrotation Zrotation
			JOINT L_Foot
			{
				OFFSET 0.000002 -52.055374 -3.073691
				CHANNELS 3 Xrotation Yrotation Zrotation
				JOINT L_ToeBase
				{
					OFFSET 1.169127 -9.354687 13.784521
					CHANNELS 6 Xposition Yposition Zposition Xrotation Yrotation Zrotation
					JOINT L_Toe_End
					{
						OFFSET 0.516993 -0.004916 8.312323
						CHANNELS 6 Xposition Yposition Zposition Xrotation Yrotation Zrotation
						End Site
						{
							OFFSET 0.516995 -0.004916 8.312323
						}
					}
				}
			}
		}
	}
	JOINT R_UpLeg
	{
		OFFSET -10.121301 -5.316544 0.163048
		CHANNELS 6 Xposition Yposition Zposition Xrotation Yrotation Zrotation
		JOINT R_Leg
		{
			OFFSET 0.000055 -40.854687 0.206898
			CHANNELS 3 Xrotation Yrotation Zrotation
			JOINT R_Foot
			{
				OFFSET -0.000054 -52.055359 -3.073693
				CHANNELS 3 Xrotation Yrotation Zrotation
				JOINT R_ToeBase
				{
					OFFSET -1.169123 -9.354716 13.784500
					CHANNELS 6 Xposition Yposition Zposition Xrotation Yrotation Zrotation
					JOINT R_Toe_End
					{
						OFFSET -0.516972 -0.004950 8.311937
						CHANNELS 6 Xposition Yposition Zposition Xrotation Yrotation Zrotation
						End Site
						{
							OFFSET -0.516973 -0.004951 8.311935
						}
					}
				}
			}
		}
	}
}
MOTION
Frames: 4
Frame Time: 0.033333
0.745276 97.560196 -2.046686 11.746577 -18.949426 0.288178 -0.023067 13.157014 0.957419 2.396379 -0.556115 1.900676 7.470209 -1.173146 1.477453 7.480779 -1.056938 1.506680 -0.000001 26.776342 -4.691220 -5.830245 3.350062 -2.388615 0.000001 14.063201 3.449325 -22.634033 14.538032 -1.221872 0.000001 19.645248 2.611586 0.000000 0.000000 0.000000 3.570281 7.264587 7.838841 0.000000 0.000000 0.000000 -3.524154 7.264313 7.838841 0.000000 0.000000 0.000000 7.980431 21.886404 -6.266447 0.579100 5.090334 -11.395696 -5.933398 -21.658924 -54.751466 0.000088 -83.234509 0.000185 20.673453 0.574374 27.692597 5.751505 -2.607735 4.214742 0.926200 5.662229 2.627923 2.728221 -1.585471 1.645154 4.400018 -0.658173 -3.555709 2.690659 -1.563659 1.622500 7.402776 41.134780 -0.422996 2.811092 -1.633630 1.695145 -0.000006 0.000002 0.000001 13.704098 -1.118983 2.963550 -11.021925 -7.597277 -13.875193 0.492021 2.778892 -20.407313 2.335564 4.908061 -40.075892 -0.000001 0.000002 -0.000000 13.314018 -0.054770 0.195246 -0.960081 -2.065226 -0.494517 2.866781 6.252854 -53.957658 0.055426 2.422666 -17.743354 0.000000 0.000003 0.000000 12.889374 0.014860 -3.304778 -2.868566 11.841913 17.449129 0.435864 3.443640 -25.386362 1.783989 4.588785 -36.600723 0.000000 0.000002 -0.000003 12.770172 -1.052114 -6.055606 3.610943 25.241000 3.201797 0.709461 3.669756 -26.769217 3.967706 6.237019 -55.050427 -0.000001 -0.000001 0.000000 -7.980434 21.886808 -6.266447 1.680637 4.496095 10.406294 -15.941481 17.871383 63.693625 0.000899 87.262360 -0.001001 25.152223 7.707203 0.789232 -5.971841 -2.424512 3.942982 -7.997304 22.567281 -15.751565 -2.728216 -1.585012 1.645162 6.795101 -45.017036 -9.110881 -2.690705 -1.563969 1.622510 -12.845238 21.749375 8.049267 -2.811160 -1.633006 1.695150 -0.000000 0.000000 0.000004 -13.521737 -0.054579 0.198881 0.021498 -3.878136 -20.725164 2.516825 -5.058357 44.644193 0.036981 -1.069821 8.184716 0.000002 -0.000000 0.000001 -12.702792 0.785943 -3.722346 0.095461 -8.111885 15.771795 -0.600830 -0.971534 6.601396 -0.254456 -0.755256 5.626917 -0.000001 0.000000 0.000001 -12.544337 -0.205681 -6.499267 1.042414 -10.010254 29.397616 3.575016 -6.017388 55.863547 2.437613 -4.992017 43.088563 0.000004 -0.000003 -0.000001 10.121324 -5.316733 0.163048 -48.133371 6.747868 24.506905 42.685715 8.453170 1.555078 -3.115137 1.522882 -18.295468 1.169127 -9.354694 13.784518 -0.453316 0.000002 0.000004 0.516996 -0.004915 8.312325 0.000001 0.000002 0.000001 -10.121300 -5.316545 0.163051 -41.208693 -9.822096 -16.409878 42.835859 -9.706253 -1.293979 -7.567214 -1.961018 16.374323 -1.169117 -9.354716 13.784505 -0.000010 0.000010 0.000005 -0.516971 -0.004952 8.311937 0.000003 0.000004 0.000000 
0.446022 98.092804 -2.185019 11.966292 -18.558196 0.133124 -0.023068 13.157001 0.957423 2.251152 -0.280718 1.779178 7.333739 -0.970738 1.368736 7.344793 -0.882691 1.399885 -0.000001 26.776344 -4.691220 -5.844922 3.198161 -2.098889 0.000002 14.063224 3.449323 -22.565115 14.094912 -1.539806 0.000001 19.645233 2.611583 0.000000 -0.000000 -0.000000 3.570282 7.264572 7.838836 0.000000 -0.000000 0.000000 -3.524153 7.264282 7.838839 0.000000 -0.000000 0.000000 7.980435 21.886395 -6.266456 0.576711 4.961957 -11.129190 -4.585625 -23.031816 -54.193333 0.000163 -82.479527 0.000277 21.056269 0.617635 27.112818 5.751517 -2.607748 4.214728 0.926203 5.662225 2.627916 2.728229 -1.585441 1.645158 4.400025 -0.658172 -3.555709 2.690653 -1.563649 1.622513 7.402775 41.134773 -0.422991 2.811121 -1.633631 1.695150 0.000001 0.000003 -0.000004 13.704102 -1.118976 2.963538 -11.021916 -7.597275 -13.875183 0.492014 2.778914 -20.407311 2.335571 4.908058 -40.075899 0.000000 0.000007 -0.000001 13.314012 -0.054755 0.195239 -0.960068 -2.065215 -0.494492 2.866774 6.252852 -53.957668 0.055416 2.422660 -17.743344 -0.000000 0.000001 -0.000000 12.889372 0.014861 -3.304785 -2.868560 11.841898 17.449129 0.435863 3.443630 -25.386357 1.783996 4.588777 -36.600720 0.000001 0.000003 0.000002 12.770170 -1.052112 -6.055606 3.610954 25.241002 3.201814 0.709470 3.669759 -26.769198 3.967702 6.237015 -55.050437 -0.000002 -0.000000 0.000000 -7.980443 21.886806 -6.266452 1.765632 4.579838 10.511283 -15.752312 18.028522 64.615249 0.061640 85.761010 -0.055804 27.787166 7.344592 0.647455 -5.971838 -2.424506 3.942998 -7.997326 22.567298 -15.751562 -2.728199 -1.585012 1.645162 6.795167 -45.017043 -9.110840 -2.690722 -1.563969 1.622510 -12.845274 21.749370 8.049290 -2.811148 -1.633012 1.695159 -0.000003 0.000000 0.000002 -13.521727 -0.054572 0.198892 0.022463 -3.875311 -20.745752 2.515773 -5.057349 44.632619 0.036845 -1.069085 8.178977 0.000002 -0.000002 0.000002 -12.702789 0.785949 -3.722337 0.094905 -8.109075 15.751070 -0.600881 -0.969963 6.590193 -0.254473 -0.754478 5.621183 0.000004 0.000001 -0.000001 -12.544353 -0.205684 -6.499249 1.041156 -10.007778 29.376746 3.573858 -6.016586 55.851878 2.437146 -4.991513 43.082764 -0.000003 0.000003 -0.000000 10.121323 -5.316741 0.163049 -47.456236 7.184777 24.800285 40.666687 8.201538 1.095047 -2.412610 1.372116 -17.567684 1.169127 -9.354691 13.784518 -0.417798 0.000004 -0.000007 0.516995 -0.004915 8.312321 0.000001 -0.000001 -0.000000 -10.121305 -5.316551 0.163043 -40.591053 -10.855598 -16.386940 41.401417 -9.802441 -1.017678 -6.815747 -1.806179 16.863175 -1.169122 -9.354716 13.784503 -0.635652 0.005319 -0.559703 -0.516970 -0.004952 8.311941 0.000003 0.000004 0.000000 
0.125729 98.579300 -2.344167 12.170183 -18.209891 0.121755 -0.023068 13.156985 0.957424 2.040613 0.145282 1.683222 7.127598 -0.655132 1.259325 7.138010 -0.596969 1.289697 -0.000002 26.776276 -4.691215 -5.732501 3.022060 -2.102004 0.000000 14.063223 3.449313 -22.340745 13.443229 -1.787736 0.000000 19.645264 2.611583 -0.000000 0.000000 0.000000 3.570281 7.264587 7.838838 -0.000000 -0.000000 0.000000 -3.524152 7.264297 7.838839 -0.000000 -0.000000 0.000000 7.980438 21.886402 -6.266460 0.549805 4.726018 -10.559519 -3.457723 -24.844478 -53.376228 -0.000005 -82.166691 0.000093 22.706305 0.528589 25.350104 5.751514 -2.607747 4.214735 0.926203 5.662224 2.627923 2.728232 -1.585451 1.645153 4.400025 -0.658166 -3.555706 2.690659 -1.563659 1.622498 7.402778 41.134773 -0.422996 2.811101 -1.633622 1.695137 -0.000002 0.000006 -0.000002 13.704102 -1.118999 2.963549 -11.021914 -7.597283 -13.875189 0.491999 2.778911 -20.407323 2.335565 4.908070 -40.075903 0.000000 0.000004 -0.000000 13.314013 -0.054777 0.195235 -0.960066 -2.065224 -0.494504 2.866768 6.252867 -53.957682 0.055420 2.422666 -17.743346 0.000001 -0.000004 0.000000 12.889370 0.014845 -3.304783 -2.868565 11.841909 17.449134 0.435857 3.443618 -25.386387 1.783999 4.588788 -36.600692 0.000001 -0.000002 -0.000001 12.770176 -1.052120 -6.055610 3.610961 25.240993 3.201793 0.709459 3.669774 -26.769195 3.967704 6.236995 -55.050444 -0.000002 0.000002 -0.000003 -7.980437 21.886801 -6.266454 1.919812 5.151278 10.251195 -15.694648 17.798737 64.994072 0.033797 83.468709 -0.028808 31.194635 6.884857 0.458360 -5.971853 -2.424531 3.942969 -7.997320 22.567276 -15.751553 -2.728203 -1.585010 1.645168 6.795107 -45.017039 -9.110876 -2.690701 -1.563974 1.622515 -12.845249 21.749383 8.049283 -2.811163 -1.633008 1.695146 -0.000003 0.000000 0.000002 -13.521726 -0.054588 0.198869 0.023422 -3.872555 -20.765846 2.514755 -5.056404 44.621540 0.036733 -1.068377 8.173494 -0.000001 -0.000003 0.000002 -12.702800 0.785917 -3.722363 0.094339 -8.106329 15.730805 -0.600963 -0.968392 6.578834 -0.254484 -0.753744 5.615684 -0.000000 -0.000002 -0.000002 -12.544346 -0.205702 -6.499278 1.039904 -10.005388 29.356334 3.572752 -6.015804 55.840796 2.436703 -4.991020 43.077242 -0.000001 0.000005 -0.000000 10.121322 -5.316739 0.163047 -46.933805 7.900437 25.002881 38.733999 8.089971 0.811800 -1.475250 0.981822 -16.832740 1.169127 -9.354692 13.784519 -0.508382 0.000005 -0.000003 0.516991 -0.004915 8.312322 0.000001 0.000001 -0.000000 -10.121302 -5.316555 0.163048 -40.119763 -11.874847 -16.570341 40.175412 -9.675492 -0.666751 -6.436833 -1.646504 17.066797 -1.169122 -9.354716 13.784499 -0.996603 0.012629 -0.862538 -0.516975 -0.004952 8.311941 0.000003 -0.000002 0.000000 
-0.328078 99.038429 -2.628215 12.140013 -18.087838 0.198073 -0.023067 13.156998 0.957424 1.754173 0.711686 1.719529 6.853239 -0.247015 1.182444 6.860539 -0.214963 1.208593 -0.000000 26.776293 -4.691217 -5.446799 3.006969 -2.855056 0.000001 14.063220 3.449315 -21.767186 12.822818 -1.606611 0.000003 19.645248 2.611586 0.000000 0.000000 0.000000 3.570282 7.264603 7.838839 0.000000 0.000000 0.000000 -3.524152 7.264297 7.838840 0.000000 0.000000 0.000000 7.980431 21.886381 -6.266456 0.526517 4.594865 -10.148253 -2.211588 -26.924047 -51.630138 -0.000031 -82.611152 0.000133 24.728871 1.243649 22.508123 5.751500 -2.607759 4.214737 0.926200 5.662226 2.627920 2.728241 -1.585453 1.645156 4.400021 -0.658168 -3.555710 2.690657 -1.563653 1.622513 7.402778 41.134780 -0.422989 2.811101 -1.633624 1.695147 -0.000004 0.000006 -0.000002 13.704095 -1.119012 2.963543 -11.021910 -7.597289 -13.875185 0.492022 2.778924 -20.407308 2.335565 4.908056 -40.075899 -0.000000 -0.000003 0.000001 13.314012 -0.054807 0.195242 -0.960057 -2.065229 -0.494503 2.866773 6.252850 -53.957665 0.055420 2.422662 -17.743353 -0.000001 -0.000001 0.000000 12.889362 0.014834 -3.304772 -2.868544 11.841910 17.449122 0.435849 3.443616 -25.386367 1.783994 4.588800 -36.600709 -0.000001 0.000001 -0.000001 12.770164 -1.052135 -6.055614 3.610965 25.240997 3.201805 0.709464 3.669763 -26.769204 3.967702 6.236984 -55.050444 -0.000002 0.000002 -0.000002 -7.980446 21.886797 -6.266449 2.216402 6.648063 9.477194 -16.897080 17.308854 65.042259 -0.053130 78.285982 0.038189 35.403083 6.482001 0.369691 -5.971849 -2.424497 3.942987 -7.997318 22.567264 -15.751547 -2.728186 -1.585023 1.645162 6.795101 -45.017043 -9.110885 -2.690709 -1.563973 1.622534 -12.845241 21.749361 8.049281 -2.811165 -1.632986 1.695151 0.000002 -0.000000 0.000006 -13.521729 -0.054561 0.198893 0.017203 -3.890573 -20.634449 2.521474 -5.062666 44.694487 0.037539 -1.073070 8.209668 -0.000004 0.000002 -0.000001 -12.702806 0.785945 -3.722345 0.097930 -8.124206 15.863236 -0.600572 -0.978386 6.650249 -0.254418 -0.758599 5.651834 0.000002 0.000001 0.000003 -12.544355 -0.205667 -6.499262 1.047991 -10.021068 29.489745 3.579991 -6.020894 55.913998 2.439675 -4.994285 43.113704 -0.000001 -0.000001 0.000003 10.121319 -5.316741 0.163047 -46.040874 8.727008 25.237861 36.623392 8.108577 0.471825 -0.375210 0.755352 -16.166996 1.169120 -9.354691 13.784521 -0.629791 0.000002 -0.000005 0.516998 -0.004915 8.312326 0.000000 0.000002 0.000000 -10.121301 -5.316542 0.163049 -39.567880 -12.574307 -16.685934 39.176411 -9.465779 -0.227780 -6.437430 -1.555689 16.933702 -1.169126 -9.354717 13.784504 -0.814464 0.009187 -0.735972 -0.516976 -0.004952 8.311942 0.000004 0.000000 0.000000 
